<?xml version="1.0" encoding="UTF-8" standalone="no"?><!DOCTYPE svg PUBLIC "-//W3C//DTD SVG 1.1//EN" "http://www.w3.org/Graphics/SVG/1.1/DTD/svg11.dtd"><svg width="100%" height="100%" viewBox="0 0 450 300" version="1.1" xmlns="http://www.w3.org/2000/svg" xmlns:xlink="http://www.w3.org/1999/xlink" xml:space="preserve" xmlns:serif="http://www.serif.com/" style="fill-rule:evenodd;clip-rule:evenodd;stroke-linejoin:round;stroke-miterlimit:2;"><g><g><path d="M442.622,190.055c-4.102,13.368 -14.206,26.836 -27.721,36.948c-14.271,10.679 -30.752,16.561 -46.408,16.561c-3.361,0 -6.707,-0.274 -9.948,-0.81l-0.238,-0.037l-0.233,-0.053c-0.858,-0.189 -1.701,-0.389 -2.53,-0.594c-1.371,8.671 -5.523,20.987 -17.31,32.027c-11.458,10.734 -27.405,17.653 -47.392,20.563c-3.567,0.52 -7.13,0.782 -10.595,0.782c-25.081,-0 -41.484,-13.286 -49.981,-22.743c-8.297,7.717 -22.883,19 -42.004,24.724c-5.789,1.713 -11.682,2.577 -17.546,2.577c-10.403,0 -20.916,-2.773 -30.4,-8.016c-8.423,-4.66 -15.854,-11.105 -21.486,-18.64c-3.916,-5.221 -7.151,-11.602 -9.415,-18.481l-1.604,0.291c-6.863,1.307 -13.617,1.971 -20.077,1.971c-16.772,0 -31.557,-4.419 -41.627,-12.444l-0.042,-0.036c-32.664,-26.356 -45.445,-73.337 -45.974,-75.324l-5.44,-20.466l18.47,10.36c8.026,4.504 15.631,6.786 22.606,6.786c15.002,-0.002 25.714,-10.413 34.32,-18.781c1.316,-1.277 2.558,-2.483 3.772,-3.612c14.091,-13.076 26.964,-18.37 33.386,-20.363c2.893,-0.898 6.798,-1.334 11.936,-1.334c0.395,-0 0.789,0.002 1.18,0.006c0.311,-12.121 3.306,-32.835 17.583,-54.142c15.751,-23.508 40.815,-27.018 54.353,-27.018c7.427,-0 15.266,1.163 15.822,1.278c-0,-0 10.301,-19.068 26.788,-28.894c14.01,-8.35 31.13,-13.141 46.968,-13.141l0.082,0.002c38.081,0.349 57.699,16.835 67.451,30.605c5.603,7.909 8.63,15.841 10.249,21.678c2.229,-0.167 4.439,-0.25 6.616,-0.25c14.056,-0 27.083,3.416 38.724,10.154c11.153,6.455 20.756,15.797 28.543,27.77l0.033,0.054c24.119,37.668 16.739,75.135 9.089,100.042Z" style="fill:#fef6fb;fill-rule:nonzero;"/><path d="M203.528,50.645c0,-0 -38.087,-7.886 -58.189,22.114c-20.101,29.999 -15.685,58.628 -15.685,58.628c-0,0 -13.908,-1.421 -19.797,0.406c-5.888,1.828 -17.258,6.6 -29.949,18.376c-12.69,11.776 -33.705,37.868 -71.167,16.853c0,-0 12.183,45.837 42.944,70.658c9.746,7.767 28.629,13.604 54.45,8.68c0,0 -7.851,-28.781 14.078,-45.989c22.03,-16.599 55.226,-11.929 65.481,7.006c2.971,6.7 4.492,12.944 3.807,17.207c-0.686,4.265 -3.502,2.589 -4.644,-0.379c-1.142,-2.971 -8.833,-26.803 -36.777,-25.053c-18.807,1.41 -28.781,12.451 -31.522,20.406c-4.645,15.459 -0,35.839 9.441,48.426c11.574,15.484 34.315,28.377 59.695,20.864c27.817,-8.325 45.38,-29.847 45.38,-29.847c-0,-0 18.731,32.588 58.477,26.802c39.746,-5.788 54.67,-27.565 57.257,-45.837c0,-0 -44.628,-10.096 -29.805,-68.572c8.172,-26.642 36.12,-30.238 49.603,-18.992c2.284,3.047 2.437,8.731 -1.625,7.106c-4.06,-1.623 -15.29,-5.766 -24.528,-0.377c-6.508,4.363 -16.08,17.332 -14.353,39.566c1.58,18.243 10.297,29.684 33.908,35.228c31.877,5.278 66.141,-20.71 74.059,-46.498c7.92,-25.785 13.249,-59.288 -8.07,-92.587c-16.245,-24.975 -41.625,-37.97 -73.502,-32.69c0,-0 -4.265,-52.589 -70.66,-53.198c-27.411,-0 -62.942,16.65 -68.019,45.076c-2.411,13.504 -3.332,29.126 4.973,40.915c8.988,12.758 27.575,18.731 42.585,17.361c4.666,-0.426 9.334,-1.839 13.057,-4.682c3.937,-3.004 6.604,-7.441 8.19,-12.132c2.62,-7.747 2.432,-16.41 -0.518,-24.038c-0.845,-2.184 -1.925,-4.352 -2.02,-6.693c-0.094,-2.34 1.161,-4.956 3.443,-5.485c0.34,-0.078 0.7,-0.108 1.041,-0.021c0.811,0.208 1.31,1.001 1.711,1.736c5.346,9.816 9.879,22.659 8.121,33.95c-1.633,10.476 -9.191,19.542 -18.71,24.21c-16.01,7.85 -36.756,4.064 -51.741,-4.63c-12.995,-7.54 -20.791,-18.691 -24,-35.15c-2.402,-16.141 3.58,-28.724 3.58,-28.724Z" style="fill:#b70404;fill-rule:nonzero;"/></g></g></svg>