<?xml version="1.0" encoding="UTF-8" standalone="no"?><!DOCTYPE svg PUBLIC "-//W3C//DTD SVG 1.1//EN" "http://www.w3.org/Graphics/SVG/1.1/DTD/svg11.dtd"><svg width="100%" height="100%" viewBox="0 0 1250 1250" version="1.1" xmlns="http://www.w3.org/2000/svg" xmlns:xlink="http://www.w3.org/1999/xlink" xml:space="preserve" xmlns:serif="http://www.serif.com/" style="fill-rule:evenodd;clip-rule:evenodd;stroke-linejoin:round;stroke-miterlimit:2;"><g id="g3744"><path id="path2906" d="M564.921,664.116c41.172,42.912 68.463,60.553 117.795,78.672c68.706,26.903 116.275,102.742 69.786,137.316c-77.091,57.333 -175.594,-32.082 -196.49,-214.2c-0.174,-5.468 6.975,-4.222 8.909,-1.788Z" style="fill:#fff;fill-rule:nonzero;"/><path id="path3680" d="M836.642,707.982c49.85,33.315 60.531,61.823 77.21,97.266c27.437,52.22 50.629,82.069 106.907,72.949c99.889,-16.187 31.666,-213.211 -181.148,-183.089c-7.217,0.891 -9.892,8.731 -2.969,12.874Z" style="fill:#fff;fill-rule:nonzero;"/><path id="path3682" d="M192.232,762.813c-13.144,66.318 -50.592,286.132 33.823,288.636c4.729,0.721 4.782,6.918 2.1,10.114c-55.399,72.726 -171.94,126.889 -205.085,66.754c-54.759,-99.349 12.005,-250.813 149.789,-382.321c9.747,-6.62 21.852,3.185 19.373,16.817Z" style="fill:#fff;fill-rule:nonzero;"/><path id="path2878" d="M350.612,802.864c184.036,208.666 729.846,415.048 712.712,136.363c-0.108,-4.661 -2.176,-11.563 6.929,-9.536c106.202,27.751 202.056,155.643 169.269,198.346c-222.877,271.736 -757.824,35.438 -910.687,-315.638c-10.606,-23.858 9.429,-24.147 21.777,-9.535Z" style="fill:#fff;fill-rule:nonzero;"/><path id="path3738" d="M322.249,273.378c202.442,-16.004 290.376,37.552 349.673,108.502c29.971,52.786 -46.559,88.046 -84.343,68.44c-12.411,-19.092 -148.968,-125.17 -265.762,-174.809c-2.1,-1.326 -1.54,-1.924 0.432,-2.133Z" style="fill:#fff;fill-rule:nonzero;"/><path id="path3740" d="M256.853,599.675c-6.3,9.792 3.601,11.988 9.099,10.115c188.525,-84.468 303.647,-236.384 370.973,-432.219c1.448,-7.002 -0.369,-9.511 -2.1,-12.137c-17.724,-20.759 -38.571,-39.924 -64.22,-56.641l-87.669,21.578c-19.43,227.885 -123.572,360.585 -226.083,469.304Z" style="fill:#fff;fill-rule:nonzero;"/><path id="path3742" d="M114.063,109.468c68.154,-4.719 140.204,-16.195 217.684,-37.086c173.962,-36.769 354.585,-63.914 550.86,-68.441c53.759,14.054 134.143,138.23 117.941,171.944c-38.549,23.016 -60.833,112.592 -89.243,180.372c-27.945,86.43 -56.968,172.446 -112.342,248.307c-11.896,16.947 -34.958,12.501 -45.147,5.226c-52.217,-31.511 -99.645,-67.635 -148.389,-102.492c-13.452,-9.676 -9.915,-14.722 10.5,-13.486c98.45,21.285 81.841,34.094 123.191,-47.874c43.81,-110.589 70.047,-222.96 78.394,-337.145c-161.936,-9.33 -476.561,46.552 -539.661,93.052c-48.179,45.826 -166.53,31.656 -173.587,-83.612c-0.023,-4.988 -0.596,-10.323 9.799,-8.765Z" style="fill:#fff;fill-rule:nonzero;"/></g></svg>